<?xml version="1.0" standalone="no"?>
<!DOCTYPE svg PUBLIC "-//W3C//DTD SVG 20010904//EN"
 "http://www.w3.org/TR/2001/REC-SVG-20010904/DTD/svg10.dtd">
<svg version="1.0" xmlns="http://www.w3.org/2000/svg"
 width="880.000000pt" height="880.000000pt" viewBox="0 0 880.000000 880.000000"
 preserveAspectRatio="xMidYMid meet">
<metadata>
Created by potrace 1.11, written by Peter Selinger 2001-2013
</metadata>
<g transform="translate(0.000000,880.000000) scale(0.100000,-0.100000)"
fill="#000000" stroke="none">
<path d="M540 8004 c-50 -22 -79 -52 -106 -109 l-24 -50 0 -3300 c0 -3180 1
-3301 19 -3340 23 -51 65 -93 116 -116 39 -18 176 -19 3860 -19 3690 0 3821 1
3861 19 58 26 111 92 124 155 8 36 10 980 8 3331 l-3 3281 -26 49 c-15 30 -42
62 -68 80 l-43 30 -3841 2 c-3415 2 -3846 1 -3877 -13z m7410 -774 l0 -350
-3550 0 -3550 0 0 350 0 350 3550 0 3550 0 0 -350z m0 -3260 l0 -2460 -3550 0
-3550 0 0 2460 0 2460 3550 0 3550 0 0 -2460z"/>
<path d="M1202 7360 c-132 -81 -71 -285 85 -282 151 2 203 209 72 286 -38 22
-117 20 -157 -4z"/>
<path d="M1660 7358 c-95 -65 -91 -203 8 -261 39 -23 109 -24 150 -3 101 52
106 205 9 265 -48 29 -123 28 -167 -1z"/>
<path d="M2126 7361 c-44 -29 -70 -77 -70 -131 0 -103 93 -175 192 -148 128
35 153 209 40 278 -44 26 -123 27 -162 1z"/>
<path d="M4554 5117 c-50 -20 -90 -54 -107 -94 -10 -21 -112 -409 -228 -863
-115 -454 -228 -894 -250 -979 -21 -85 -39 -162 -39 -170 0 -66 57 -153 117
-177 41 -18 115 -18 156 0 51 21 94 78 116 153 11 38 38 142 61 233 23 91 109
428 191 750 83 322 170 663 195 759 24 95 44 191 44 213 0 125 -138 220 -256
175z"/>
<path d="M3200 4830 c-19 -10 -182 -166 -361 -347 -300 -302 -327 -332 -338
-375 -11 -49 -7 -97 15 -138 7 -14 163 -174 346 -357 279 -278 339 -333 373
-342 50 -13 61 -14 108 0 47 13 106 63 123 106 24 57 18 133 -15 184 -16 24
-130 145 -255 268 -124 124 -226 227 -226 230 0 3 108 114 239 246 156 155
245 253 255 277 39 93 1 205 -83 248 -51 26 -133 26 -181 0z"/>
<path d="M5435 4836 c-41 -18 -92 -77 -104 -123 -14 -47 -13 -58 0 -108 9 -33
54 -84 262 -293 l252 -252 -242 -243 c-132 -133 -248 -255 -256 -272 -23 -47
-29 -91 -18 -131 30 -109 135 -172 240 -143 41 11 78 44 374 338 188 187 337
343 349 365 29 56 22 140 -15 194 -46 66 -644 652 -682 668 -42 17 -120 18
-160 0z"/>
</g>
</svg>
